<svg id="Layer_1" data-name="Layer 1" xmlns="http://www.w3.org/2000/svg" viewBox="0 0 1022.18 335.57"><defs><style>.cls-1{fill:#fff;}.cls-2{opacity:0.4;}</style></defs><title>mibex-white</title><path class="cls-1" d="M889.36,334.9h21.41l14.63,120H899.81L891.45,383l-28,58.15H843.74L815.53,383,807,454.87H781.41l14.8-120h21.06l36.22,77.31Z" transform="translate(-360.41 -288.72)"/><path class="cls-1" d="M989.82,334.9v120H964.4v-120Z" transform="translate(-360.41 -288.72)"/><path class="cls-1" d="M1102.65,390.79c15.84,4,22.64,17.59,22.64,27.34,0,19.85-14.46,36.74-38.31,36.74h-51.54v-120h48.06c21.59,0,35.52,12.89,35.52,33.43C1119,376.17,1115,386.09,1102.65,390.79Zm-21.59-8.53c6.62,0,11.14-5.22,11.14-12.36,0-7.49-3.83-12.54-11.32-12.54H1061v24.9Zm-20,21.07v29.08h24.55c8.53,0,12.88-7.66,12.88-14.8,0-6.79-4.35-14.28-13.41-14.28Z" transform="translate(-360.41 -288.72)"/><path class="cls-1" d="M1163.76,334.9h75.92v22.46h-50.5V384.7h44.23v22.11h-44.23v25.6h52.06v22.46h-77.48Z" transform="translate(-360.41 -288.72)"/><path class="cls-1" d="M1339.79,391l41.62,63.9h-30.13l-26.64-43.53L1298,454.87h-30L1309.5,391l-37.79-56.07h30.65l22.28,35.87,22.47-35.87h30.47Z" transform="translate(-360.41 -288.72)"/><path class="cls-1" d="M791.94,557.29c.2,5.55,5.45,11.2,13.57,11.2s12.19-4.36,12.88-9.31c.4-6.34-4.46-9.61-10.8-11.1L799,545.9c-14.66-4-16.94-12.28-16.94-18.32,0-11.69,10.5-19.52,22.48-19.52,12.58,0,22.19,7.73,22.19,20.21h-10.5c0-6.24-4.85-10.3-11.88-10.3-6.24,0-11.79,3.76-11.79,9.41,0,2.67,1,6.83,9.11,8.91l8.72,2.28c13.77,3.67,19.51,11.39,18.42,21.2-1,10.7-10.2,18.33-23.28,18.33-14.16,0-24.07-9.71-24.07-20.81Z" transform="translate(-360.41 -288.72)"/><path class="cls-1" d="M886.74,508.06c19.51,0,34.67,15.65,34.67,35.07a34.59,34.59,0,0,1-34.67,35c-19.42,0-34.48-15.65-34.48-35S867.32,508.06,886.74,508.06Zm0,59.74c13.57,0,24.07-11,24.07-24.67s-10.5-24.77-24.07-24.77-24,11.1-24,24.77S873.27,567.8,886.74,567.8Z" transform="translate(-360.41 -288.72)"/><path class="cls-1" d="M949.24,508.86h40.51v9.7h-30v20.21h23.77v9.61H959.74v28.73h-10.5Z" transform="translate(-360.41 -288.72)"/><path class="cls-1" d="M1009.56,508.86h50.91v9.8h-20.1v58.45h-10.7V518.66h-20.11Z" transform="translate(-360.41 -288.72)"/><path class="cls-1" d="M1154,508.86h11.29l-23.08,68.25h-8.82l-11.49-40.91-11.39,40.91h-8.81l-23.09-68.25h11.3l16.24,50.81,11.69-41.5H1126l11.69,41.5Z" transform="translate(-360.41 -288.72)"/><path class="cls-1" d="M1223.21,560.07h-27.53l-6.54,17h-11.2l25.76-68.25h11.39l25.76,68.25h-11.1Zm-24-9.41h20.41L1209.45,522Z" transform="translate(-360.41 -288.72)"/><path class="cls-1" d="M1312.36,577.11h-12.78l-17-25.07h-7.34v25.07h-10.59V508.86h26.64c14.66,0,20.8,10.79,20.8,21.69,0,10-5,19.71-17.63,21.1Zm-37.15-58.55v23.88h15.26c7.63,0,10.7-6.05,10.7-11.89s-3-12-10.3-12Z" transform="translate(-360.41 -288.72)"/><path class="cls-1" d="M1340.49,508.86h41.11v9.7H1351v20.21h26.74v9.61H1351V567.5h31.6v9.61h-42.1Z" transform="translate(-360.41 -288.72)"/><g class="cls-2"><rect class="cls-1" x="573.89" y="418.36" width="10" height="152.58" transform="translate(-499.34 459.94) rotate(-60)"/></g><g class="cls-2"><rect class="cls-1" x="370.46" y="489.65" width="152.58" height="10" transform="translate(-547.88 0.93) rotate(-30)"/></g><g class="cls-2"><rect class="cls-1" x="147.41" y="15.21" width="10" height="152.36"/></g><polygon class="cls-1" points="152.41 326.71 17.52 248.84 23.02 239.31 152.41 314.01 281.8 239.31 287.3 248.84 152.41 326.71"/><path class="cls-1" d="M512.82,456.5" transform="translate(-360.41 -288.72)"/><path class="cls-1" d="M512.82,462.85,369.68,380.21l143.14-82.64L656,380.21ZM391.68,380.21l121.14,69.94L634,380.21,512.82,310.27Z" transform="translate(-360.41 -288.72)"/><path class="cls-1" d="M645,542.79a10,10,0,0,1-10-10V397.53L517.82,465.16a10,10,0,0,1-10,0L390.68,397.53V532.79a10,10,0,0,1-20,0V380.21a10,10,0,0,1,15-8.66L512.82,445,640,371.55a10,10,0,0,1,15,8.66V532.79A10,10,0,0,1,645,542.79Z" transform="translate(-360.41 -288.72)"/><circle class="cls-1" cx="20.27" cy="91.5" r="20.27"/><circle class="cls-1" cx="284.49" cy="91.5" r="20.27"/><circle class="cls-1" cx="152.41" cy="167.79" r="20.27"/><circle class="cls-1" cx="20.27" cy="244.07" r="20.27"/><circle class="cls-1" cx="284.49" cy="244.07" r="20.27"/><circle class="cls-1" cx="152.41" cy="15.2" r="15.2"/><circle class="cls-1" cx="152.41" cy="320.36" r="15.2"/></svg>